<svg width="32" height="32" viewBox="0 0 32 32" fill="none" xmlns="http://www.w3.org/2000/svg">
  <defs>
    <linearGradient id="gradient" x1="0%" y1="0%" x2="100%" y2="100%">
      <stop offset="0%" style="stop-color:#10B981;stop-opacity:1" />
      <stop offset="50%" style="stop-color:#059669;stop-opacity:1" />
      <stop offset="100%" style="stop-color:#047857;stop-opacity:1" />
    </linearGradient>
  </defs>
  <rect width="32" height="32" rx="8" fill="url(#gradient)"/>
  <!-- Carbon/Leaf icon design -->
  <path d="M16 4C16 4 20 8 20 12C20 16 16 20 16 20C16 20 12 16 12 12C12 8 16 4 16 4Z" fill="white" fill-opacity="0.9"/>
  <path d="M16 6C16 6 18 8 18 11C18 14 16 16 16 16C16 16 14 14 14 11C14 8 16 6 16 6Z" fill="white" fill-opacity="0.7"/>
  <circle cx="16" cy="16" r="2" fill="white" fill-opacity="0.8"/>
  <!-- Blockchain/Network nodes -->
  <circle cx="8" cy="8" r="1.5" fill="white" fill-opacity="0.6"/>
  <circle cx="24" cy="8" r="1.5" fill="white" fill-opacity="0.6"/>
  <circle cx="8" cy="24" r="1.5" fill="white" fill-opacity="0.6"/>
  <circle cx="24" cy="24" r="1.5" fill="white" fill-opacity="0.6"/>
  <!-- Connection lines -->
  <path d="M8 8L16 16M24 8L16 16M8 24L16 16M24 24L16 16" stroke="white" stroke-width="0.5" stroke-opacity="0.4"/>
</svg>